<svg width="98" height="25" viewBox="0 0 98 25" fill="none" xmlns="http://www.w3.org/2000/svg">
<path d="M93.7531 24.9525H50.4366C49.5338 24.9517 48.6681 24.5873 48.0297 23.9392C47.3913 23.2913 47.0324 22.4126 47.0315 21.4961V4.02791C47.0319 3.57362 47.1204 3.12385 47.2921 2.7043C47.4637 2.28474 47.7151 1.90361 48.0318 1.58265C48.3485 1.26169 48.7244 1.00721 49.138 0.833721C49.5517 0.660234 49.995 0.571143 50.4425 0.571534H93.7588C94.6617 0.573113 95.5262 0.937868 96.1644 1.58581C96.802 2.23375 97.1609 3.11198 97.1615 4.02791V21.4961C97.1609 22.4131 96.8014 23.2921 96.1619 23.9402C95.523 24.5885 94.6566 24.9525 93.7531 24.9525ZM50.4425 1.80414C49.8616 1.80454 49.3046 2.03896 48.8938 2.4559C48.4831 2.87285 48.252 3.43825 48.2517 4.02791V21.4961C48.252 22.0859 48.4831 22.6515 48.8938 23.0686C49.3044 23.4858 49.8614 23.7207 50.4425 23.7213H93.7588C94.3401 23.7207 94.8969 23.4858 95.3077 23.0686C95.7184 22.6515 95.9498 22.0859 95.9498 21.4961V4.02791C95.9498 3.73544 95.8927 3.44587 95.7819 3.17577C95.6717 2.90567 95.5095 2.66034 95.3057 2.45379C95.102 2.24726 94.8597 2.08358 94.5932 1.9721C94.3266 1.86063 94.0414 1.80356 93.7531 1.80414H50.4425Z" fill="#095092"/>
<path d="M14.7541 19.6493L8.65893 5.01155C8.57447 4.80208 8.43054 4.62288 8.24541 4.49674C8.06022 4.37059 7.84235 4.30322 7.61935 4.30322C7.39641 4.30322 7.17847 4.37059 6.99328 4.49674C6.80815 4.62288 6.6642 4.80208 6.57976 5.01155L0.484594 19.6493C0.367764 19.9272 0.364475 20.2409 0.475449 20.5213C0.586424 20.8016 0.802572 21.0257 1.07634 21.1443C1.35011 21.2629 1.65908 21.2662 1.93528 21.1537C2.21147 21.041 2.43227 20.8215 2.54911 20.5436L7.61935 8.35317L12.6896 20.5288C12.8064 20.8066 13.0272 21.0261 13.3034 21.1386C13.5796 21.2513 13.8886 21.2479 14.1624 21.1294C14.4361 21.0109 14.6523 20.7867 14.7633 20.5062C14.8742 20.226 14.8709 19.9123 14.7541 19.6344V19.6493Z" fill="#095092"/>
<path d="M38.3668 20.6927C38.4005 20.6365 38.4301 20.5778 38.4549 20.5169L44.5487 5.88503C44.6108 5.74672 44.6451 5.59716 44.6492 5.4452C44.6534 5.29327 44.6277 5.14198 44.5733 5.00035C44.5189 4.85869 44.4371 4.72955 44.3327 4.62054C44.2283 4.51152 44.1036 4.42485 43.9657 4.36567C43.8277 4.30646 43.6794 4.27594 43.5296 4.27589C43.3798 4.27585 43.2317 4.30629 43.0937 4.36539C42.9556 4.42449 42.8307 4.51109 42.7263 4.62004C42.622 4.72897 42.5401 4.85807 42.4855 4.99969L37.4154 17.1738L32.3436 4.99672C32.2952 4.84739 32.2167 4.70991 32.1131 4.59293C32.0096 4.47597 31.8832 4.38208 31.742 4.31718C31.601 4.25229 31.4481 4.21779 31.2933 4.2159C31.1384 4.214 30.9848 4.24473 30.8422 4.30615C30.6995 4.36757 30.571 4.45833 30.4647 4.57273C30.3584 4.68712 30.2767 4.82264 30.2246 4.97073C30.1725 5.11883 30.1513 5.27629 30.1622 5.43314C30.173 5.58999 30.2159 5.74284 30.288 5.88204L36.3713 20.5139C36.4491 20.709 36.5784 20.8784 36.7448 21.0035C36.9114 21.1286 37.1088 21.2047 37.3151 21.2232C37.5217 21.2418 37.7291 21.202 37.9147 21.1084C38.1002 21.0147 38.2567 20.871 38.3668 20.6927Z" fill="#095092"/>
<path d="M22.7406 21.2248H17.9626C16.478 21.1654 16.4766 19.0116 17.9626 18.9506H22.7406C24.0138 18.9489 25.2343 18.4349 26.1345 17.5213C27.0349 16.6077 27.5417 15.3689 27.5436 14.0767V11.452C27.542 10.1594 27.0355 8.92029 26.1351 8.00639C25.2347 7.09243 24.0139 6.57825 22.7406 6.57668H17.9626C16.481 6.51856 16.4737 4.36484 17.9626 4.30225H22.7406C24.6098 4.30225 26.4026 5.05598 27.7244 6.39766C29.0461 7.73936 29.7887 9.55901 29.7887 11.4564V14.0767C29.7871 15.9731 29.044 17.7912 27.7223 19.1316C26.4007 20.472 24.6089 21.2248 22.7406 21.2248Z" fill="#095092"/>
<path d="M60.6549 13.0421C60.6122 13.0097 60.5773 12.9675 60.5533 12.919C60.5293 12.8705 60.517 12.8169 60.517 12.7627C60.517 12.7084 60.5293 12.6548 60.5533 12.6063C60.5773 12.5578 60.6122 12.5157 60.6549 12.4832C64.0042 9.96133 62.3758 4.3453 57.956 4.29761H52.2823C52.1173 4.29761 51.9589 4.36417 51.8421 4.48269C51.7253 4.60121 51.6597 4.76195 51.6597 4.92956V10.6172C51.6599 10.7512 51.7021 10.8817 51.7801 10.9898L53.0546 12.7619L51.7801 14.5341C51.7023 14.6422 51.6601 14.7727 51.6597 14.9067V20.5929C51.6597 20.6757 51.6759 20.758 51.7071 20.8346C51.7384 20.9114 51.7842 20.9809 51.8421 21.0397C51.9 21.0983 51.9685 21.1448 52.0442 21.1766C52.1195 21.2085 52.2005 21.2247 52.2823 21.2247H57.956C62.3744 21.1786 64.0058 15.5595 60.6549 13.0421ZM57.956 19.9609H52.9049V15.1124L54.3277 13.136C54.4053 13.0272 54.4469 12.8962 54.4467 12.7619C54.4472 12.628 54.4055 12.4975 54.3277 12.3893L52.9049 10.4085V5.56299H57.956C62.2629 5.74334 62.2613 11.9496 57.956 12.13H56.0281C55.868 12.1378 55.7171 12.208 55.6066 12.3258C55.4959 12.4436 55.4343 12.6 55.4343 12.7627C55.4343 12.9253 55.4959 13.0818 55.6066 13.1996C55.7171 13.3174 55.868 13.3875 56.0281 13.3954H57.956C62.2672 13.5742 62.2686 19.7819 57.956 19.9609Z" fill="#095092"/>
<path d="M72.2931 21.2069C70.4918 21.2049 68.7648 20.4777 67.4915 19.1848C66.2176 17.8919 65.5012 16.1389 65.4993 14.3105V11.1805C65.8722 2.03358 78.7146 2.03358 79.0869 11.1805V14.3105C79.085 16.1389 78.3686 17.8919 77.0953 19.1848C75.8214 20.4777 74.0944 21.2049 72.2931 21.2069ZM72.2931 5.54509C70.8218 5.54668 69.4114 6.14061 68.3714 7.19655C67.3307 8.2525 66.7456 9.68424 66.7444 11.1776V14.3075C67.0481 21.7792 77.5381 21.7792 77.8419 14.3075V11.1776C77.8406 9.68424 77.2555 8.2525 76.2148 7.19655C75.1748 6.14061 73.7644 5.54668 72.2931 5.54509Z" fill="#095092"/>
<path d="M87.5302 12.9543C87.4936 12.897 87.4744 12.8302 87.4744 12.762C87.4744 12.6937 87.4936 12.627 87.5302 12.5697L92.2292 5.27689C92.3195 5.13655 92.351 4.96554 92.317 4.80146C92.2837 4.63739 92.1869 4.49369 92.0485 4.40197C91.9101 4.31028 91.7415 4.27807 91.5801 4.31244C91.4186 4.34684 91.277 4.44498 91.1866 4.58532L86.9534 11.1538C86.922 11.2046 86.8791 11.2466 86.8278 11.2757C86.7766 11.3048 86.7183 11.3201 86.6593 11.3201C86.601 11.3201 86.5427 11.3048 86.4914 11.2757C86.4401 11.2466 86.3966 11.2046 86.3658 11.1538L82.1461 4.58532C82.1 4.51406 82.041 4.4529 81.9712 4.40548C81.9019 4.35809 81.8238 4.32539 81.7411 4.3094C81.6591 4.29338 81.5745 4.2944 81.4925 4.31236C81.4104 4.33032 81.3329 4.36485 81.265 4.41391C81.1323 4.51373 81.0433 4.66161 81.0157 4.8266C80.9888 4.9916 81.0253 5.16095 81.1182 5.29925L85.7961 12.5697C85.8327 12.627 85.8525 12.6937 85.8525 12.762C85.8525 12.8302 85.8327 12.897 85.7961 12.9543L81.0977 20.2487C81.0131 20.3888 80.9856 20.5569 81.0215 20.7172C81.0574 20.8776 81.1528 21.0174 81.2887 21.1072C81.4245 21.1969 81.5892 21.2296 81.7482 21.1981C81.9071 21.1667 82.0474 21.0736 82.1397 20.9386L86.3671 14.3687C86.3985 14.3179 86.4414 14.2758 86.4927 14.2468C86.544 14.2176 86.6023 14.2024 86.6612 14.2024C86.7202 14.2024 86.7778 14.2176 86.8291 14.2468C86.8804 14.2758 86.9239 14.3179 86.9547 14.3687L91.1821 20.9386C91.2744 21.0736 91.4154 21.1667 91.5743 21.1981C91.7332 21.2296 91.8979 21.1969 92.0331 21.1072C92.169 21.0174 92.2651 20.8776 92.3003 20.7172C92.3362 20.5569 92.3087 20.3888 92.2247 20.2487L87.5302 12.9543Z" fill="#095092"/>
</svg>
