<svg width="11" height="7" viewBox="0 0 11 7" fill="none" xmlns="http://www.w3.org/2000/svg">
<path fill-rule="evenodd" clip-rule="evenodd" d="M10.8536 3.85355C11.0488 3.65829 11.0488 3.34171 10.8536 3.14645L7.85355 0.146447C7.65829 -0.0488159 7.34171 -0.0488159 7.14645 0.146447C6.95118 0.341708 6.95118 0.658291 7.14645 0.853553L9.29289 3L0.5 3C0.223858 3 1.6506e-07 3.22386 1.5299e-07 3.5C1.40919e-07 3.77614 0.223858 4 0.5 4L9.29289 4L7.14645 6.14645C6.95118 6.34171 6.95118 6.65829 7.14645 6.85355C7.34171 7.04882 7.65829 7.04882 7.85355 6.85355L10.8536 3.85355Z" fill="#AAAAAA"/>
</svg>
