<svg width="92" height="93" viewBox="0 0 92 93" fill="none" xmlns="http://www.w3.org/2000/svg">
<path d="M71.2471 33.749C70.6493 31.5015 68.8809 29.7286 66.6309 29.1209C62.5626 28.0305 46.2396 28.0305 46.2396 28.0305C46.2396 28.0305 29.925 28.0305 25.8484 29.1209C23.6067 29.7202 21.8383 31.4932 21.2322 33.749C20.1445 37.8276 20.1445 46.3429 20.1445 46.3429C20.1445 46.3429 20.1445 54.8581 21.2322 58.9368C21.83 61.1842 23.5984 62.9572 25.8484 63.5648C29.925 64.6552 46.2396 64.6552 46.2396 64.6552C46.2396 64.6552 62.5626 64.6552 66.6309 63.5648C68.8726 62.9655 70.641 61.1925 71.2471 58.9368C72.3348 54.8581 72.3348 46.3429 72.3348 46.3429C72.3348 46.3429 72.3348 37.8276 71.2471 33.749Z" fill="white"/>
<path d="M41.0256 54.1922L54.5838 46.3429L41.0256 38.4935V54.1922Z" fill="black"/>
</svg>
