<svg width="92" height="93" viewBox="0 0 92 93" fill="none" xmlns="http://www.w3.org/2000/svg">
<path d="M35.2487 64.8962V40.1627H27.0349V64.8962H35.2495H35.2487ZM31.1435 36.7863C34.0072 36.7863 35.79 34.8871 35.79 32.5136C35.7364 30.086 34.0072 28.2397 31.198 28.2397C28.3868 28.2397 26.5508 30.086 26.5508 32.5134C26.5508 34.8869 28.333 36.7861 31.0897 36.7861H31.1429L31.1435 36.7863ZM39.7951 64.8962H48.0081V51.0854C48.0081 50.3471 48.0618 49.607 48.2787 49.0797C48.8722 47.6021 50.2237 46.0727 52.4932 46.0727C55.4646 46.0727 56.6539 48.3406 56.6539 51.6659V64.8962H64.8668V50.7147C64.8668 43.118 60.8152 39.5828 55.4114 39.5828C50.981 39.5828 49.0352 42.0613 47.9541 43.7494H48.0088V40.1635H39.7955C39.9027 42.4838 39.7949 64.897 39.7949 64.897L39.7951 64.8962Z" fill="white"/>
</svg>
